<svg viewBox="0 0 561 630" xmlns="http://www.w3.org/2000/svg">
    <g stroke="currentColor" stroke-width="2.5" fill="none" fill-rule="evenodd">
        <path
            d="M291.98 407c5.261 0 11.722-2.992 16.73-5.879 7.94-4.578 16.726-11.44 24.11-18.833 5.577-5.584 18.155-19.43 14.537-27.4-1.612-3.555-5.99-5.11-13.001-4.624-15.247 1.062-24.564-.716-30.214-5.757-5.208-4.651-7.117-11.884-9.534-21.042-1.95-7.404-4.166-15.796-8.668-24.907-6.578-13.313-17.836-19.83-31.69-18.352-8.88.948-18.241 5.08-26.369 11.634-7.85 6.332-13.4 14.107-15.221 21.327-1.972 7.802.51 14.553 6.985 19.01 8.337 5.74 16.608 10.35 24.604 14.808 11.623 6.478 21.662 12.075 28.756 19.38 7.662 7.898 10.85 16.999 10.028 28.646-.407 5.777 1.192 9.534 4.756 11.165 1.254.574 2.673.824 4.192.824Z"></path>
        <path
            d="M285.274 282.135c-7.197-10.25-16.237-16.64-28.045-17.103-2.19-.09-4.454.01-6.777.302-9.537 1.224-19.434 5.732-28.306 12.339-9.085 6.762-16.06 14.8-19.21 22.86a29.95 29.95 0 0 0-1.297 4.168c-.788 3.416-.836 6.705-.206 9.807 1.158 5.679 4.612 10.674 10.281 14.601 3.148 2.177 6.104 4.304 8.892 6.439a149.09 149.09 0 0 1 6.946 5.689 389.02 389.02 0 0 1 9.492 8.525c1.2 1.111 2.373 2.205 3.541 3.273 7.722 7.054 14.552 13.719 21.69 20.864.922.922 1.841 1.843 2.748 2.778 4.092 4.223 7.651 8.525 10.487 13.216 3.115 5.159 5.363 10.808 6.34 17.118.872 5.636 3.27 9.352 7.822 11.124 1.434.56 3.001.842 4.662.863 2.004.032 4.12-.272 6.25-.8 4.385-1.038 8.776-2.997 12.455-5.023a66.585 66.585 0 0 0 6.652-4.19c6.706-4.782 13.355-10.74 18.73-17.652 2.08-2.674 4.605-6.418 7.549-10.377 3.187-4.314 6.623-8.77 9.683-12.88 3.484-4.686 5.159-9.088 3.963-12.798-1.444-4.483-6.56-6.96-14.57-7.656-2.344-.196-4.613-.512-6.823-.776-10.675-1.278-18.874-3.585-24.93-7.945-1.19-.857-2.303-1.757-3.308-2.753-5.84-5.777-8.465-13.774-10.756-23.536-.188-.8-.379-1.604-.58-2.413-1.21-4.902-2.77-9.815-5.001-14.652-2.13-4.616-5.182-8.864-8.374-13.412Z"></path>
        <path
            d="M284.083 265.85c-8.545-9.403-18.157-15.775-30.897-15.848a47.603 47.603 0 0 0-7.234.5c-10.247 1.505-20.784 6.351-30.39 13.116-11.548 8.133-20.479 17.827-24.34 27.727a34.24 34.24 0 0 0-1.568 5.171c-.907 4.2-.86 8.259.074 12.123 1.641 6.816 6.048 12.9 13.151 17.837 3.744 2.6 7.11 5.206 10.154 7.905 2.677 2.387 5.045 4.864 7.241 7.414 3.268 3.796 6.1 7.567 8.785 11.308 1.054 1.47 2.077 2.924 3.114 4.339 6.73 9.187 12.74 18.04 21.056 26.96a233.74 233.74 0 0 0 3.17 3.32c4.659 4.817 9.164 9.53 13.221 14.64 4.251 5.358 8.03 11.061 10.504 17.569 2.078 5.459 5.36 9.242 10.938 11.152a17.1 17.1 0 0 0 5.156.908c2.247.063 4.58-.207 6.906-.704 4.973-.984 9.809-2.956 13.87-5.098a56.872 56.872 0 0 0 7.335-4.623c7.254-5.378 14.1-12.23 19.45-20.367 2.418-3.678 5.104-8.624 8.626-13.672 3.86-5.572 8.26-10.998 12.71-15.838 5.197-5.65 7.723-10.852 6.637-15.425-1.289-5.431-7.164-8.852-16.215-10.736-2.643-.537-5.235-1.246-7.827-1.834-11.623-2.638-21.21-6.1-28.481-11.989-1.352-1.092-2.63-2.215-3.783-3.438-6.873-7.29-10.143-16.792-12.559-28.14a118.27 118.27 0 0 0-.645-2.884c-1.417-6.006-3.477-11.77-6.51-17.153-2.945-5.224-7.312-9.467-11.65-14.24Z"></path>
        <path
            d="M282.349 249.51c-9.61-8.603-19.97-14.785-33.568-14.5a56.218 56.218 0 0 0-7.647.691c-10.896 1.782-22.04 6.902-32.295 13.822-13.97 9.43-24.783 20.75-29.326 32.435a38.02 38.02 0 0 0-1.831 6.145c-1.027 4.96-.88 9.77.35 14.37 2.112 7.913 7.45 15.049 15.944 20.97 4.322 3.006 8.078 6.076 11.356 9.327 2.89 2.878 5.326 5.905 7.5 9.093 3.17 4.658 5.693 9.355 8.02 14.03.903 1.817 1.77 3.619 2.666 5.38 5.714 11.235 10.858 22.253 20.295 32.904a120.89 120.89 0 0 0 3.575 3.842c5.195 5.382 10.598 10.492 15.879 15.98 5.333 5.54 10.554 11.222 14.611 17.918 3.175 5.23 7.414 9.09 13.99 11.116 1.792.551 3.673.88 5.62.946 2.481.096 5.017-.14 7.528-.606 5.524-.919 10.785-2.891 15.202-5.143a51.73 51.73 0 0 0 7.97-5.028c7.764-5.943 14.684-13.705 20.056-22.962 2.717-4.685 5.574-10.782 9.652-16.889a110.523 110.523 0 0 1 15.669-18.71c6.885-6.577 10.236-12.55 9.273-17.963-1.133-6.348-7.724-10.696-17.77-13.753-2.922-.878-5.82-1.958-8.784-2.884-12.503-3.905-23.43-8.562-31.864-15.965-1.507-1.32-2.939-2.662-4.234-4.106-7.865-8.764-11.759-19.717-14.287-32.584a97.962 97.962 0 0 0-.707-3.334c-1.615-7.078-4.171-13.655-7.988-19.558-3.748-5.802-9.313-10.022-14.855-14.984Z"></path>
        <path
            d="M281.116 233.272c-10.582-7.945-21.877-13.891-36.395-13.22-2.64.12-5.344.41-8.097.89-11.596 2.062-23.413 7.458-34.35 14.59-16.475 10.741-29.203 23.768-34.453 37.293a42.91 42.91 0 0 0-2.103 7.146c-1.148 5.74-.906 11.322.628 16.68 2.592 9.048 8.892 17.268 18.817 24.2 4.918 3.43 9.081 6.977 12.61 10.792 3.116 3.384 5.633 6.97 7.79 10.817 3.099 5.533 5.323 11.179 7.295 16.814.76 2.171 1.475 4.327 2.23 6.443 4.748 13.321 9.032 26.567 19.63 39a97.663 97.663 0 0 0 3.994 4.383c5.76 5.974 12.07 11.519 18.613 17.391 6.426 5.767 13.043 11.463 18.79 18.352 4.214 5.053 9.497 8.992 17.108 11.13 1.972.552 4.015.903 6.11.989 2.722.128 5.473-.073 8.179-.51 6.108-.857 11.815-2.836 16.606-5.21a49.52 49.52 0 0 0 8.645-5.453c8.31-6.539 15.295-15.276 20.754-25.67 3.006-5.724 6.07-12.986 10.726-20.182a102.236 102.236 0 0 1 18.696-21.665c8.612-7.527 12.801-14.308 11.954-20.584-.981-7.292-8.32-12.587-19.4-16.836-3.221-1.223-6.444-2.666-9.785-3.944-13.454-5.141-25.773-11.057-35.399-20.016-1.67-1.553-3.263-3.122-4.706-4.791-8.89-10.283-13.423-22.732-16.084-37.178a97.494 97.494 0 0 0-.769-3.802c-1.823-8.178-4.887-15.601-9.5-22.051-4.574-6.403-11.295-10.661-18.134-15.798Z"></path>
        <path
            d="M280.37 217.011c-11.43-7.341-23.687-12.94-39.063-11.883-2.778.192-5.62.544-8.509 1.082-12.245 2.338-24.692 7.97-36.251 15.294-18.92 11.989-33.491 26.687-39.428 41.988a47.427 47.427 0 0 0-2.363 8.117c-1.263 6.496-.931 12.828.904 18.92 3.055 10.143 10.29 19.412 21.602 27.324 5.491 3.835 10.044 7.842 13.809 12.21 3.33 3.87 5.924 8 8.045 12.489 3.02 6.38 4.933 12.957 6.538 19.526.612 2.513 1.176 5.016 1.785 7.48 3.782 15.341 7.167 30.759 18.872 44.923a88.41 88.41 0 0 0 4.401 4.904c6.297 6.536 13.474 12.506 21.263 18.728 7.48 5.976 15.43 11.7 22.883 18.703 5.205 4.889 11.539 8.861 20.15 11.096 2.145.556 4.34.92 6.574 1.029 2.952.158 5.907-.008 8.798-.41 6.659-.796 12.79-2.773 17.936-5.256a48.05 48.05 0 0 0 9.279-5.86c8.815-7.1 15.811-16.786 21.36-28.258 3.265-6.748 6.541-15.136 11.75-23.39a101.193 101.193 0 0 1 21.643-24.526c10.303-8.44 15.304-16 14.584-23.113-.833-8.205-8.881-14.424-20.948-19.846-3.503-1.56-7.04-3.353-10.741-4.986-14.36-6.325-28.007-13.495-38.776-23.98-1.827-1.775-3.57-3.564-5.156-5.454-9.873-11.756-15.03-25.647-17.808-41.608a94.758 94.758 0 0 0-.833-4.251c-2.018-9.246-5.584-17.476-10.967-24.45-5.383-6.974-13.185-11.306-21.333-16.542Z"></path>
        <path
            d="M279.12 199.833c-12.286-6.836-25.585-12.036-41.88-10.59-2.93.26-5.92.678-8.956 1.28-12.941 2.618-26.072 8.498-38.295 16.052-21.45 13.258-37.912 29.698-44.553 46.837-1.185 3.053-2.065 6.094-2.637 9.113-1.384 7.276-.958 14.38 1.185 21.225 3.527 11.28 11.731 21.628 24.474 30.55 6.086 4.253 11.045 8.74 15.06 13.671 3.552 4.374 6.237 9.063 8.334 14.21 2.953 7.252 4.564 14.778 5.804 22.306.472 2.868.885 5.725 1.344 8.544 2.847 17.42 5.335 35.06 18.193 51.009a82.543 82.543 0 0 0 4.821 5.44c6.86 7.128 14.928 13.553 23.997 20.136 8.56 6.216 17.848 12.026 27.066 19.124 6.2 4.775 13.624 8.77 23.273 11.101 2.322.562 4.68.94 7.06 1.071 3.194.191 6.366.063 9.45-.312 7.24-.736 13.816-2.717 19.335-5.322a47.656 47.656 0 0 0 9.954-6.284c9.356-7.69 16.365-18.36 22.048-30.953 3.52-7.798 7.034-17.34 12.823-26.677 6.5-10.542 14.742-19.736 24.673-27.476 12.034-9.383 17.863-17.753 17.265-25.727-.683-9.149-9.472-16.312-22.575-22.926-3.797-1.902-7.664-4.049-11.741-6.047-15.332-7.51-30.354-15.98-42.302-28.025-1.992-2.006-3.893-4.024-5.627-6.14-10.892-13.274-16.688-28.658-19.603-46.19a95.802 95.802 0 0 0-.895-4.719c-2.226-10.345-6.305-19.413-12.48-26.934-6.215-7.569-15.092-12.049-24.615-17.347Z"></path>
        <path
            d="M277.37 183.659c-13.084-6.361-27.394-11.094-44.545-9.26-3.073.326-6.201.81-9.372 1.47-13.588 2.892-27.359 8.994-40.196 16.759-23.914 14.46-42.195 32.6-49.519 51.511-1.308 3.377-2.275 6.741-2.896 10.08-1.5 8.031-.984 15.881 1.457 23.457 3.989 12.373 13.13 23.763 27.256 33.662 6.661 4.66 12.01 9.608 16.26 15.084 3.762 4.863 6.53 10.092 8.59 15.878 2.88 8.096 4.182 16.55 5.048 25.008.33 3.21.594 6.411.903 9.577 1.905 19.441 3.483 39.232 17.446 56.91a81.401 81.401 0 0 0 5.222 5.96c7.396 7.69 16.328 14.552 26.644 21.467 9.609 6.442 20.196 12.353 31.149 19.479 7.175 4.664 15.659 8.652 26.312 11.068 2.491.566 5.003.958 7.522 1.111a59.77 59.77 0 0 0 10.067-.214c7.791-.673 14.793-2.652 20.664-5.368a47.527 47.527 0 0 0 10.588-6.688c9.865-8.252 16.852-19.873 22.658-33.534 3.752-8.825 7.504-19.481 13.846-29.873 7.145-11.76 16.336-21.87 27.613-30.326 13.724-10.291 20.36-19.44 19.89-28.249-.536-10.057-10.034-18.14-24.123-25.923-4.08-2.238-8.267-4.724-12.696-7.085-16.263-8.66-32.594-18.4-45.678-31.973-2.147-2.228-4.198-4.468-6.075-6.801-11.872-14.744-18.287-31.563-21.324-50.604-.28-1.75-.594-3.475-.956-5.17-2.427-11.407-7.004-21.279-13.95-29.325-7.022-8.134-16.928-12.798-27.805-18.088Z"></path>
        <path
            d="M276.11 167.563c-13.925-5.95-29.293-10.188-47.357-7.96-3.224.395-6.5.943-9.817 1.668-14.281 3.171-28.744 9.506-42.234 17.51-26.462 15.695-46.613 35.603-54.646 56.342-1.437 3.712-2.493 7.41-3.166 11.079-1.623 8.806-1.016 17.427 1.737 25.755 4.46 13.505 14.568 25.971 30.127 36.874 7.254 5.08 13.01 10.5 17.51 16.54 3.987 5.367 6.848 11.153 8.877 17.596 2.82 8.965 3.814 18.368 4.31 27.781.19 3.564.303 7.118.464 10.639.978 21.521 1.646 43.516 16.753 62.981a82.275 82.275 0 0 0 5.646 6.494c7.958 8.275 17.777 15.604 29.377 22.865 10.687 6.69 22.61 12.745 35.334 19.89 8.174 4.589 17.747 8.566 29.435 11.07 2.671.571 5.343.979 8.01 1.152 3.664.257 7.254.197 10.717-.115 8.373-.612 15.818-2.595 22.062-5.43 4.123-1.872 7.871-4.235 11.259-7.112 10.404-8.839 17.383-21.443 23.342-36.217 3.985-9.879 7.997-21.678 14.916-33.152 7.816-13.017 17.984-24.074 30.644-33.268 15.458-11.227 22.921-21.186 22.579-30.854-.393-10.998-10.63-20.024-25.752-28.996-4.373-2.58-8.897-5.411-13.691-8.142-17.256-9.828-34.947-20.877-49.203-36.014-2.311-2.456-4.519-4.928-6.546-7.485-12.887-16.258-19.944-34.561-23.117-55.169a98.14 98.14 0 0 0-1.021-5.633c-2.63-12.506-7.723-23.207-15.46-31.802-7.855-8.726-18.809-13.64-31.089-18.887Z"></path>
        <path
            d="M275.362 150.517c-14.729-5.569-31.101-9.279-50.025-6.66-3.362.467-6.78 1.081-10.23 1.867-14.93 3.453-30.037 10.016-44.142 18.26-28.934 16.912-50.888 38.599-59.603 61.165-1.56 4.045-2.705 8.072-3.427 12.072-1.74 9.583-1.042 18.972 2.013 28.052 4.92 14.632 15.962 28.172 32.903 40.08 7.829 5.496 13.974 11.394 18.708 17.995 4.2 5.868 7.146 12.21 9.134 19.307 2.756 9.833 3.438 20.19 3.561 30.553.048 3.916.013 7.825.02 11.699.053 23.601-.19 47.797 16.015 69.041a83.29 83.29 0 0 0 6.048 7.03c8.495 8.86 19.173 16.657 32.02 24.258 11.731 6.941 24.958 13.157 39.413 20.297 9.152 4.521 19.775 8.48 32.465 11.067 2.841.58 5.667 1 8.473 1.196 3.896.287 7.686.262 11.332-.02 8.926-.549 16.803-2.52 23.393-5.49a47.96 47.96 0 0 0 11.896-7.533c10.911-9.425 17.852-23.01 23.952-38.892 4.2-10.936 8.468-23.873 15.94-36.431 8.462-14.268 19.578-26.269 33.582-36.202 17.142-12.162 25.412-22.929 25.193-33.454-.247-11.935-11.186-21.904-27.297-32.066-4.655-2.924-9.502-6.095-14.648-9.2-18.2-10.989-37.189-23.348-52.572-40.05-2.472-2.683-4.827-5.383-6.996-8.166-13.864-17.77-21.539-37.557-24.838-59.725a106.77 106.77 0 0 0-1.082-6.098c-2.829-13.597-8.423-25.13-16.926-34.272-8.664-9.314-20.625-14.52-34.275-19.68Z"></path>
        <path
            d="M274.096 134.525c-15.585-5.21-32.999-8.366-52.835-5.352a134.076 134.076 0 0 0-10.673 2.064c-15.623 3.731-31.42 10.52-46.175 19.003-31.497 18.114-55.312 41.59-64.73 65.977-1.691 4.376-2.926 8.735-3.7 13.064-1.86 10.358-1.073 20.515 2.29 30.344 5.396 15.76 17.407 30.37 35.779 43.28 8.424 5.914 14.975 12.284 19.957 19.447 4.422 6.367 7.466 13.266 9.421 21.019 2.696 10.698 3.07 22.002 2.82 33.317-.094 4.269-.28 8.532-.421 12.757-.87 25.683-2.034 52.069 15.32 75.09 1.96 2.604 4.122 5.116 6.468 7.565 9.056 9.441 20.62 17.71 34.753 25.645 12.813 7.194 27.385 13.583 43.602 20.701 10.165 4.463 21.862 8.396 35.59 11.062 3.018.587 6.01 1.02 8.96 1.237 4.137.32 8.144.33 11.984.08 9.504-.49 17.825-2.464 24.787-5.55 4.664-2.049 8.84-4.702 12.566-7.955 11.45-10.008 18.37-24.572 24.633-41.559 4.42-11.991 8.96-26.068 17.009-39.702 9.134-15.519 21.226-28.462 36.615-39.133 18.878-13.092 27.974-24.667 27.884-36.048-.104-12.873-11.78-23.781-28.923-35.132-4.951-3.265-10.14-6.778-15.645-10.257-19.206-12.143-39.545-25.814-56.095-44.082-2.636-2.91-5.14-5.84-7.469-8.844-14.841-19.308-23.149-40.551-26.629-64.271-.317-2.23-.7-4.417-1.144-6.559-3.033-14.692-9.146-27.05-18.44-36.739-9.496-9.9-22.5-15.435-37.56-20.47Z"></path>
        <path
            d="M272.35 118.6c-16.41-4.86-34.814-7.472-55.5-4.032a148.221 148.221 0 0 0-11.09 2.252c-16.274 4.003-32.718 10.995-48.082 19.702-33.98 19.254-59.582 44.464-69.684 70.607-1.815 4.7-3.136 9.376-3.96 14.022-1.976 11.105-1.118 22.01 2.566 32.554 5.82 16.856 18.798 32.487 38.553 46.363 8.996 6.315 15.933 13.142 21.154 20.845 4.633 6.851 7.763 14.286 9.678 22.67 2.632 11.541 2.695 23.763 2.073 35.995-.234 4.61-.569 9.214-.863 13.778-1.787 27.699-3.865 56.2 14.587 80.938 2.073 2.783 4.368 5.468 6.869 8.078 9.592 9.999 22.014 18.718 37.393 26.965 13.857 7.43 29.742 13.982 47.673 21.05 11.154 4.397 23.889 8.289 38.619 11.03 3.188.592 6.333 1.035 9.423 1.274 4.366.35 8.576.395 12.599.176 10.057-.428 18.801-2.399 26.118-5.594 4.927-2.137 9.31-4.92 13.2-8.355 11.96-10.565 18.835-26.065 25.248-44.117 4.625-13.011 9.431-28.187 18.032-42.865 9.78-16.725 22.817-30.576 39.55-41.955 20.56-13.987 30.456-26.34 30.494-38.546.043-13.776-12.34-25.592-30.467-38.1-5.233-3.599-10.749-7.44-16.6-11.287-20.167-13.26-41.791-28.207-59.465-47.99-2.796-3.13-5.448-6.282-7.919-9.5-15.82-20.763-24.747-43.429-28.348-68.644-.332-2.383-.734-4.72-1.207-7.005-3.231-15.744-9.844-28.896-19.904-39.103-10.304-10.46-24.314-16.343-40.74-21.205Z"></path>
        <path
            d="M271.08 101.744c-17.292-4.537-36.711-6.556-58.308-2.726a163.17 163.17 0 0 0-11.532 2.45c-16.967 4.28-34.102 11.489-50.113 20.438-36.553 20.432-64.006 47.439-74.815 75.397-1.945 5.026-3.356 10.035-4.23 15.01-2.096 11.874-1.146 23.541 2.844 34.83 6.298 17.977 20.241 34.674 41.427 49.548 9.59 6.73 16.936 14.03 22.405 22.29 4.857 7.35 8.084 15.337 9.96 24.374 2.578 12.402 2.33 25.569 1.333 38.748-.375 4.96-.859 9.915-1.305 14.829-2.71 29.773-5.658 60.417 13.886 86.959a88.931 88.931 0 0 0 7.293 8.607c10.152 10.582 23.463 19.773 40.127 28.348 14.938 7.685 32.181 14.419 51.863 21.445 12.178 4.347 25.977 8.205 41.744 11.021 3.369.601 6.674 1.056 9.91 1.315 4.608.383 9.032.463 13.251.277 10.636-.367 19.826-2.341 27.512-5.655 5.204-2.228 9.809-5.15 13.87-8.771 12.5-11.145 19.342-27.616 25.927-46.77 4.834-14.065 9.922-30.37 19.1-46.121 10.451-17.972 24.485-32.726 42.583-44.871 22.324-14.877 32.998-28.071 33.188-41.127.157-14.708-12.932-27.46-32.092-41.152-5.53-3.938-11.39-8.118-17.599-12.34-21.178-14.406-44.148-30.663-62.986-52.002-2.962-3.355-5.768-6.734-8.388-10.18-16.838-22.262-26.408-46.397-30.141-73.163a113.742 113.742 0 0 0-1.27-7.463c-3.439-16.833-10.568-30.807-21.418-41.557-11.14-11.04-26.196-17.311-44.026-21.988Z"></path>
        <path
            d="M270.332 84.963c-18.143-4.224-38.522-5.638-60.977-1.418a180.742 180.742 0 0 0-11.946 2.643c-17.617 4.559-35.403 11.982-52.023 21.175-39.04 21.595-68.277 50.404-79.767 80.17-2.068 5.358-3.565 10.694-4.491 15.994-2.212 12.644-1.17 25.073 3.12 37.105 6.755 19.094 21.632 36.854 44.2 52.723 10.162 7.144 17.897 14.912 23.6 23.73 5.07 7.848 8.386 16.388 10.223 26.074 2.513 13.262 1.955 27.371.586 41.493-.516 5.31-1.145 10.616-1.744 15.88-3.625 31.846-7.492 64.662 13.154 92.963a91.283 91.283 0 0 0 7.694 9.138c10.69 11.157 24.855 20.823 42.767 29.72 15.981 7.94 34.547 14.86 55.93 21.839 13.176 4.3 28.003 8.124 44.772 11.011 3.537.609 6.997 1.076 10.373 1.358 4.836.415 9.465.528 13.866.372 11.191-.307 20.802-2.28 28.843-5.71 5.465-2.319 10.28-5.382 14.507-9.189 13.005-11.723 19.799-29.159 26.541-49.416 5.03-15.11 10.391-32.546 20.123-49.369 11.098-19.211 26.073-34.904 45.514-47.779 24.003-15.802 35.486-29.793 35.798-43.698.31-15.636-13.49-29.323-33.636-44.194-5.81-4.28-12.002-8.793-18.553-13.392-22.148-15.55-46.397-33.11-66.357-56.005-3.122-3.58-6.078-7.189-8.838-10.855-17.816-23.758-28.003-49.361-31.86-77.673a120.092 120.092 0 0 0-1.331-7.923c-3.636-17.916-11.284-32.687-22.88-44-11.97-11.597-28.021-18.301-47.208-22.767Z"></path>
        <path
            d="M269.058 68.27c-19.048-3.93-40.418-4.73-63.782-.11a198.65 198.65 0 0 0-12.392 2.844c-18.305 4.844-36.781 12.494-54.048 21.947-41.622 22.792-72.699 53.466-84.896 85.096-2.199 5.696-3.786 11.371-4.763 17.008-2.332 13.437-1.199 26.649 3.4 39.45 7.231 20.245 23.073 39.105 47.072 55.997 10.76 7.572 18.9 15.824 24.851 25.217 5.292 8.356 8.707 17.464 10.505 27.817 2.458 14.152 1.614 29.233-.156 44.32-.647 5.672-1.436 11.34-2.189 16.96-4.546 33.98-9.341 69.03 12.455 99.144a93.996 93.996 0 0 0 8.114 9.685c11.248 11.756 26.304 21.913 45.5 31.15 17.064 8.209 36.996 15.333 60.127 22.27 14.204 4.262 30.09 8.056 47.898 11.02 3.715.62 7.336 1.099 10.857 1.4 5.078.45 9.921.598 14.517.472 11.767-.244 21.824-2.222 30.236-5.779 5.742-2.413 10.777-5.617 15.177-9.62 13.545-12.32 20.302-30.756 27.218-52.152 5.234-16.19 10.885-34.785 21.191-52.712 11.77-20.487 27.72-37.148 48.55-50.775 25.736-16.759 38.051-31.573 38.49-46.354.455-16.595-14.084-31.243-35.263-47.322a1034.122 1034.122 0 0 0-19.547-14.469c-23.17-16.72-48.757-35.62-69.877-60.115-3.287-3.814-6.4-7.653-9.309-11.55-18.834-25.298-29.664-52.417-33.653-82.327a123.081 123.081 0 0 0-1.395-8.396c-3.841-19.033-12.004-34.656-24.393-46.53-12.8-12.2-29.915-19.341-50.495-23.585Z"></path>
        <path
            d="M267.31 51.652c-19.922-3.631-42.227-3.81-66.45 1.198a217.777 217.777 0 0 0-12.808 3.037c-18.956 5.121-38.083 12.98-55.96 22.678-44.113 23.93-76.966 56.41-89.845 89.838-2.322 6.025-3.997 12.025-5.023 17.987-2.448 14.201-1.224 28.17 3.673 41.711 7.693 21.355 24.468 41.27 49.846 59.153 11.331 7.981 19.86 16.703 26.046 26.649 5.504 8.85 9.009 18.509 10.767 29.504 2.398 15.012 1.235 31.03-.9 47.052-.788 6.02-1.724 12.038-2.627 18.005-5.46 36.043-11.172 73.253 11.723 105.116a96.372 96.372 0 0 0 8.519 10.213c11.786 12.327 27.698 22.958 48.138 32.513 18.108 8.462 39.369 15.774 64.19 22.653 15.21 4.215 32.112 7.972 50.92 11.006 3.887.627 7.66 1.118 11.323 1.443 5.309.478 10.353.662 15.132.569 12.323-.184 22.8-2.163 31.568-5.834 6.002-2.506 11.248-5.847 15.811-10.034 14.053-12.894 20.758-32.29 27.837-54.781 5.424-17.233 11.353-36.948 22.216-55.94 12.41-21.724 29.304-39.314 51.477-53.666 27.412-17.683 40.536-33.289 41.1-48.912.601-17.52-14.644-33.095-36.81-50.35-6.385-4.968-13.256-10.154-20.504-15.515-24.14-17.857-51.051-38.017-73.245-64.1a219.71 219.71 0 0 1-9.759-12.22c-19.814-26.787-31.258-55.362-35.371-86.808a129.395 129.395 0 0 0-1.457-8.853c-4.037-20.11-12.696-36.546-25.856-48.957-13.6-12.778-31.746-20.36-53.67-24.355Z"></path>
        <path
            d="M266.036 36.118c-20.847-3.342-44.122-2.889-69.255 2.506a237.926 237.926 0 0 0-13.25 3.232c-19.646 5.395-39.463 13.46-57.986 23.4-46.7 25.062-81.39 59.35-94.978 94.567-2.45 6.354-4.215 12.68-5.293 18.967-2.57 14.96-1.251 29.685 3.954 43.963 8.168 22.46 25.908 43.43 52.718 62.298 11.926 8.393 20.86 17.578 27.299 28.077 5.726 9.343 9.345 19.548 11.047 31.189 2.364 15.864.861 32.817-1.645 49.773-.931 6.37-2.006 12.736-3.072 19.048-6.328 38.11-13.026 77.462 11.022 111.07a98.852 98.852 0 0 0 8.94 10.738c12.345 12.9 29.146 24.002 50.872 33.869 19.193 8.717 41.823 16.219 68.384 23.036 16.246 4.172 34.203 7.89 54.05 10.99 4.065.636 8 1.137 11.808 1.482 5.55.51 10.807.73 15.78.666 12.9-.12 23.827-2.1 32.962-5.886 6.28-2.597 11.745-6.074 16.484-10.446 14.59-13.465 21.252-33.816 28.51-57.398 5.622-18.272 11.847-39.106 23.284-59.163 13.081-22.952 30.95-41.474 54.512-56.545 29.146-18.602 43.104-34.997 43.791-51.462.753-18.44-15.234-34.941-38.43-53.37-6.681-5.304-13.9-10.823-21.5-16.558-25.168-18.99-53.396-40.46-76.766-68.071a238.153 238.153 0 0 1-10.229-12.89c-20.832-28.27-32.919-58.301-37.164-91.275-.405-3.18-.914-6.284-1.518-9.306-4.246-21.186-13.42-38.437-27.372-51.379-14.434-13.355-33.65-21.388-56.96-25.122Z"></path>
        <path
            d="M265.288 18.667c-21.742-3.061-45.931-1.973-71.926 3.818a261.035 261.035 0 0 0-13.665 3.429c-20.297 5.68-40.784 13.93-59.9 24.163-49.243 26.143-85.655 62.382-99.923 99.45-2.573 6.688-4.424 13.351-5.554 19.971-2.684 15.747-1.275 31.25 4.229 46.288 8.628 23.604 27.298 45.66 55.49 65.546 12.496 8.814 21.819 18.48 28.492 29.546 5.94 9.852 9.64 20.621 11.308 32.924 2.294 16.745.485 34.66-2.385 52.576-1.074 6.726-2.297 13.454-3.51 20.12-7.264 40.227-14.853 81.796 10.297 117.202a101.76 101.76 0 0 0 9.34 11.28c12.884 13.492 30.53 25.11 53.51 35.282 20.227 9.008 44.2 16.686 72.444 23.453 17.254 4.133 36.22 7.841 57.072 10.99 4.236.65 8.326 1.159 12.273 1.527 5.778.541 11.242.796 16.399.768 13.453-.065 24.8-2.048 34.289-5.955 6.545-2.69 12.22-6.308 17.12-10.872 15.1-14.06 21.71-35.396 29.13-60.11 5.808-19.342 12.316-41.328 24.307-62.476 13.727-24.22 32.536-43.7 57.442-59.518 30.82-19.55 45.586-36.76 46.398-54.094.898-19.392-15.797-36.844-39.979-56.475-6.962-5.65-14.527-11.492-22.453-17.628-26.186-20.1-55.636-42.965-80.137-72.154a255.132 255.132 0 0 1-10.678-13.578c-21.81-29.798-34.515-61.331-38.882-95.888-.423-3.343-.949-6.6-1.582-9.776-4.443-22.294-14.11-40.386-28.83-53.88-15.237-13.951-35.495-22.46-60.136-25.93Z"></path>
        <path
            d="M341.735 629c23.731 0 41.06-5.674 53.472-17.285 15.638-14.627 22.204-36.91 29.804-62.71 6.005-20.379 12.808-43.476 25.376-65.682 14.398-25.445 34.18-45.848 60.476-62.38 32.556-20.467 48.156-38.462 49.092-56.63 1.35-26.153-27.953-49.096-65.051-78.146-27.176-21.277-57.977-45.395-83.657-76.106-29.68-35.496-46.632-72.97-51.82-114.57-3.508-28.119-14.27-50.498-31.992-66.515-16.068-14.523-37.405-23.502-63.423-26.688-22.686-2.78-47.827-1.055-74.729 5.122-25.516 5.86-51.808 15.717-76.03 28.503C61.463 63.257 23.17 101.217 8.196 140.066c-9.131 23.69-9.575 47.064-1.317 69.469 9.107 24.705 28.742 47.81 58.365 68.673 13.091 9.223 22.822 19.352 29.743 30.968 6.16 10.34 9.952 21.657 11.591 34.598 3.064 24.204-2.097 50.76-7.087 76.438-8.212 42.272-16.707 85.984 9.59 123.126 13.63 19.254 35.222 35.096 66.008 48.432 34.328 14.876 79.09 26.258 136.84 34.801 10.908 1.616 20.818 2.429 29.806 2.429Z"></path>
    </g>
</svg>